<svg width="15" height="14" viewBox="0 0 15 14" fill="none" xmlns="http://www.w3.org/2000/svg">
<path d="M4.16927 1.66536C4.16927 0.928985 4.76622 0.332031 5.5026 0.332031H9.5026C10.239 0.332031 10.8359 0.928985 10.8359 1.66536V2.9987H12.1624C12.1665 2.99866 12.1706 2.99866 12.1748 2.9987H13.5026C13.8708 2.9987 14.1693 3.29717 14.1693 3.66536C14.1693 4.03355 13.8708 4.33203 13.5026 4.33203H12.79L12.2118 12.427C12.162 13.1248 11.5814 13.6654 10.8819 13.6654H4.12335C3.42383 13.6654 2.84324 13.1248 2.79341 12.427L2.21519 4.33203H1.5026C1.13441 4.33203 0.835938 4.03355 0.835938 3.66536C0.835938 3.29717 1.13441 2.9987 1.5026 2.9987H2.83043C2.83457 2.99866 2.8387 2.99866 2.84282 2.9987H4.16927V1.66536ZM5.5026 2.9987H9.5026V1.66536H5.5026V2.9987ZM3.55192 4.33203L4.12335 12.332H10.8819L11.4533 4.33203H3.55192ZM6.16927 5.66536C6.53746 5.66536 6.83594 5.96384 6.83594 6.33203V10.332C6.83594 10.7002 6.53746 10.9987 6.16927 10.9987C5.80108 10.9987 5.5026 10.7002 5.5026 10.332V6.33203C5.5026 5.96384 5.80108 5.66536 6.16927 5.66536ZM8.83594 5.66536C9.20413 5.66536 9.5026 5.96384 9.5026 6.33203V10.332C9.5026 10.7002 9.20413 10.9987 8.83594 10.9987C8.46775 10.9987 8.16927 10.7002 8.16927 10.332V6.33203C8.16927 5.96384 8.46775 5.66536 8.83594 5.66536Z" fill="#2F3A4E"/>
</svg>
