<svg width="14" height="14" viewBox="0 0 14 14" fill="none" xmlns="http://www.w3.org/2000/svg">
<rect width="14" height="14" rx="2" fill="#5452F6"/>
<path fill-rule="evenodd" clip-rule="evenodd" d="M9.81878 4.13627C9.61174 3.92986 9.27253 3.94436 9.08385 4.16768L5.98181 7.83917L4.85779 6.6654C4.66381 6.46284 4.3412 6.45942 4.14297 6.65782L3.78973 7.01135C3.59759 7.20365 3.59429 7.51423 3.78231 7.71057L5.63352 9.64371C5.78014 9.79682 6.00025 9.83615 6.18459 9.76056C6.28622 9.73735 6.38169 9.68222 6.45465 9.59587L6.73356 9.26575L7.04727 8.95178L7.02154 8.92491L10.1994 5.16367C10.3673 4.96492 10.3547 4.67059 10.1705 4.48688L9.81878 4.13627Z" fill="white"/>
</svg>
