<svg width="13" height="14" viewBox="0 0 13 14" fill="none" xmlns="http://www.w3.org/2000/svg">
<path d="M6.29325 0.280897C6.56892 0.55126 6.56892 0.989605 6.29325 1.25997L5.38062 2.15505H6.5C9.78397 2.15505 12.5 4.81885 12.5 8.03966C12.5 11.2605 9.78397 13.9243 6.5 13.9243C3.21603 13.9243 0.5 11.2605 0.5 8.03966C0.5 7.65731 0.816034 7.34736 1.20588 7.34736C1.59573 7.34736 1.91176 7.65731 1.91176 8.03966C1.91176 10.4958 3.99573 12.5397 6.5 12.5397C9.00427 12.5397 11.0882 10.4958 11.0882 8.03966C11.0882 5.58355 9.00427 3.53966 6.5 3.53966H5.38062L6.29325 4.43474C6.56892 4.70511 6.56892 5.14345 6.29325 5.41381C6.01759 5.68418 5.57065 5.68418 5.29498 5.41381L3.17734 3.33689C2.90167 3.06653 2.90167 2.62818 3.17734 2.35782L5.29498 0.280897C5.57065 0.0105342 6.01759 0.0105342 6.29325 0.280897Z" fill="#2F3A4E"/>
</svg>
